<svg width="25" height="21" viewBox="0 0 25 21" fill="none" xmlns="http://www.w3.org/2000/svg">
<path fill-rule="evenodd" clip-rule="evenodd" d="M7.57178 8C9.78092 8 11.5718 6.20914 11.5718 4C11.5718 1.79086 9.78092 0 7.57178 0C5.36264 0 3.57178 1.79086 3.57178 4C3.57178 6.20914 5.36264 8 7.57178 8ZM17.0947 8C19.3039 8 21.0947 6.20914 21.0947 4C21.0947 1.79086 19.3039 0 17.0947 0C14.8856 0 13.0947 1.79086 13.0947 4C13.0947 6.20914 14.8856 8 17.0947 8ZM0 15.8823C0 12.5686 2.68629 9.88232 6 9.88232H9.47604C10.5788 9.88232 11.6121 10.1798 12.5 10.6989C12.6126 10.7648 12.7229 10.8342 12.8307 10.907C14.4267 11.9853 15.476 13.8113 15.476 15.8823V20C15.476 20.5523 15.0283 21 14.476 21H10.5239H1C0.447715 21 0 20.5523 0 20V15.8823ZM24 21H16.2085C16.3786 20.7058 16.476 20.3643 16.476 20V15.8823C16.476 13.5466 15.332 11.478 13.5737 10.2064C14.1851 9.99635 14.8412 9.88232 15.5239 9.88232H19C22.3137 9.88232 25 12.5686 25 15.8823V20C25 20.5523 24.5522 21 24 21Z" fill="#B5B8BE"/>
</svg>
