<svg width="30" height="30" viewBox="0 0 30 30" fill="none" xmlns="http://www.w3.org/2000/svg">
<path fill-rule="evenodd" clip-rule="evenodd" d="M20.7415 10.5068C21.0862 10.1621 21.0862 9.60324 20.7415 9.25853C20.3968 8.91382 19.8379 8.91382 19.4932 9.25853L14.5 14.2517L9.50682 9.25853C9.16212 8.91382 8.60324 8.91382 8.25853 9.25853C7.91382 9.60324 7.91382 10.1621 8.25853 10.5068L13.2517 15.5L8.25853 20.4932C7.91382 20.8379 7.91382 21.3968 8.25853 21.7415C8.60324 22.0862 9.16212 22.0862 9.50682 21.7415L14.5 16.7483L19.4932 21.7415C19.8379 22.0862 20.3968 22.0862 20.7415 21.7415C21.0862 21.3968 21.0862 20.8379 20.7415 20.4932L15.7483 15.5L20.7415 10.5068Z" fill="white"/>
</svg>
